<svg xmlns="http://www.w3.org/2000/svg" viewBox="0 0 672.412 523.617"><defs><style>@font-face{font-family:&quot;Virgil&quot;;src:url(&quot;https://excalidraw.com/FG_Virgil.woff2&quot;)}@font-face{font-family:&quot;Cascadia&quot;;src:url(&quot;https://excalidraw.com/Cascadia.woff2&quot;)}</style></defs><path fill="#fff" d="M0 0h672.412v523.617H0z"/><path d="M12.943 8.947c56.555 1.864 114.858 1.071 277.77 2.043m-278.088-.263c77.41 1.093 153.93.835 276.997-.927m1.001 1.672c-1.873 37.926.604 80.4-.743 129.19m-.97-130.326c1.933 35.632 1.005 73.184.927 129.268m-.556 1.345c-69.133-2.528-138.933-4.104-278.135-1.795m278.64 1.001c-70.005 1.132-138.834.229-278.094-.047m-.769-1.496C12.72 94.26 11.311 46.99 13.08 9.17m-1.71 130.9c1.254-35.587 1.706-70.481.102-129.496" stroke="#000" fill="none"/><text y="18" font-family="Virgil" font-size="20" style="white-space:pre" transform="translate(113.77 62.71)">class A</text><path d="M12.62 200.232c91.745.15 184.94-.019 277.1.674m-278.34.408c87.21-2.438 173.08-2.218 277.896-.09m.785-.558c-1.007 32.168-.346 62.998-.235 130.748m-.051-129.621c.342 47.857.806 95.79-.997 129.153m1.171-1.677c-100.737.927-200.54-.942-279.007 2.565m278.126-.714c-84.513.378-171.368 1.259-278.002-1.069m1.578 1.21c.711-47.64-1.777-94.05-2.13-128.417m1.913 128.641c-.92-49.364-1.419-98.144-1.354-131.29" stroke="#000" fill="none"/><text y="18" font-family="Virgil" font-size="20" style="white-space:pre" transform="translate(113.596 253.313)">class B</text><path d="M8.773 382.64c90.999 1.363 181.217 2.689 280.35-.384m-278.777 1.503c56.366 1.446 111.725.339 278.04.712m-1.759-2.027c2.098 48.17-.232 95.64 2.45 129.62m-1.602-128.34c.518 27.04.797 51.908-.336 128.973m.359.97c-75.295.937-148.897-.005-278.796.753m278.76-1.018c-72.57.747-143.402 1.877-277.324.613m1.094-1.416c-.671-31.353-1.486-65.205-1.934-130.3m-.293 131.489c.203-35.223-.472-69.542 1.953-129.806" stroke="#000" fill="none"/><text y="18" font-family="Virgil" font-size="20" style="white-space:pre" transform="translate(88.814 438.32)">class C</text><g fill="none"><path d="M214.742 59.48s0 0 0 0m0 0s0 0 0 0m.796 6.829c3.083-6.868 7.974-10.777 16.337-17.333m-16.802 16.402c4.154-4.98 8.05-8.166 15.89-18.927M214.807 72.86c6.305-9.938 16.071-18.453 23.145-27.674m-24.245 27.1c7.319-6.89 12.901-15.837 22.954-24.997M213.33 77.567c6.606-6.634 10.84-11.578 29.147-32.613m-28.189 33.548c8.95-10.547 17.333-19.741 28.964-33.265m-27.81 35.93c9.021-7.284 17.884-17.18 34.735-35.936m-33.95 35.725c10.575-9.219 19.803-20.091 32.989-37.158m-30.843 40.105c9.294-6.73 13.572-14.259 34.4-37.817m-34.718 39.558c10.917-12.304 22.965-25.922 35.002-40.309m-33.806 42.01c13.89-11.83 22.875-19.588 35.41-37.314M220.725 88.14c7.243-8.757 15.747-16.97 34.573-39.038m-30.986 42.957c8.05-9.657 12.59-17.048 33.815-40.36m-34.972 40.246c12.322-13.565 24.662-27.362 34.863-40.364m-31.359 45.88c8.723-10.865 16.277-21.824 36.48-41.508M226.28 95.036c12.077-12.906 22.998-26.716 34.659-41.728M230.694 95.18c9.336-10.46 17.262-18.916 33.08-39.92m-33.966 40.658c10.646-10.833 21.01-23.057 36.374-39m-33.498 42.572c9.93-9.382 15.101-18.908 34.07-37.648m-33.66 36.888c9.733-9.587 17.72-18.323 34.013-38.748m-30.695 40.381c8.449-7.756 14.425-17.621 32.006-33.123m-29.312 31.76c8.258-10.108 17.542-20.618 28.49-33.735m-25.193 35.877c4.984-7.099 11.561-15.236 26.902-30.153m-27.343 29.008C252 89.233 261.643 78.604 268.958 70.09m-23.945 33.06c10.927-10.004 17.466-23.236 22.905-26.668m-21.588 25.553c5.062-7.204 12.4-13.357 23.664-27.154" stroke="#fa5252" stroke-width=".5"/><path d="M248.986 43.854c5.513 1.098 11.919 6.16 15.16 11.254 3.24 5.093 4.829 13.253 4.283 19.307-.545 6.055-3.36 12.724-7.554 17.02-4.194 4.296-11.469 8.29-17.608 8.756-6.14.467-14.371-2.216-19.23-5.958-4.86-3.741-8.337-10.744-9.926-16.49-1.589-5.747-2.183-12.698.393-17.99 2.575-5.29 9.02-11.213 15.059-13.755 6.04-2.542 17.436-1.48 21.176-1.495 3.74-.016 1.672.805 1.265 1.402m-10.61-3.223c5.828.026 14.573 4.79 18.95 8.81 4.378 4.021 6.366 9.719 7.316 15.314.95 5.594 1.212 12.865-1.62 18.255-2.831 5.39-9.579 11.75-15.37 14.084-5.79 2.335-13.569 2.597-19.371-.077-5.803-2.675-12.592-10.482-15.443-15.972-2.851-5.49-3.171-11.349-1.665-16.968 1.506-5.618 5.954-12.845 10.702-16.745 4.748-3.9 14.992-5.907 17.786-6.655 2.794-.748-.748 1.827-1.02 2.165" stroke="#000"/></g><path d="M242.654 101.71c.152 24.1.105 119.745.134 143.79M241.12 101.05c.127 24.319.818 122.213 1.03 146.024M232.899 219.952c1.214 6.353 4.346 11.227 7.267 27.746m-7.504-28.22c1.844 5.867 3.11 11.21 8.797 28.05" stroke="#000" fill="none"/><path d="M253.42 219.792c-3.367 6.364-4.815 11.275-13.254 27.906m13.017-28.38c-2.776 5.98-6.128 11.357-11.724 28.21M241.943 318.605c-.296 17.385-1.394 87.03-1.707 104.563m.226-102.227c.069 17.555 1.657 86.055 1.973 103.417" stroke="#000" fill="none"/><path d="M230.71 394.758c2.993 8.178 7.337 18.898 10.77 29.21m-9.69-26.996c2.857 6.902 5.437 15.056 10.837 26.476" stroke="#000" fill="none"/><path d="M251.227 394.333c-3.209 8.299-5.065 19.148-9.747 29.634m10.827-27.42c-3.185 7.091-6.642 15.37-9.68 26.901" stroke="#000" fill="none"/><g fill="none"><path d="M225.663 259.49s0 0 0 0m0 0s0 0 0 0m-7.856 14.364c6.784-6.463 12.27-13.009 15.004-15.72m-16.528 18.153c5.243-5.021 9.878-9.348 16.335-17.747m-16.484 21.84c7.51-6.249 12.795-10.788 24.076-22.342m-23.354 24.107c5.133-7.002 10.446-12.875 22.773-26.62m-23.485 31.144c9.2-9.138 14.527-17.693 30.336-32.707m-28.524 34.447c9.922-12.41 20.267-24.066 26.998-32.502m-28.65 37.466c9.861-8.643 19.895-19.975 33.36-35.702m-32.611 37.901c7.239-9.565 14.501-17.553 31.502-38.73m-30.65 39.588c11.629-9.937 18.771-20.673 35.972-37.07m-33.819 38.145c6.474-7.958 12.152-15.14 32.219-38.69M222.875 301.8c7.487-11.457 14.149-20.602 34.087-42.73m-35.128 41.443c10.06-11.93 20.444-22.53 34.36-39.124m-31.792 41.099c8.226-7.339 15.171-15.187 35.595-39.687m-36.494 39.86c12.013-10.954 21.65-23.636 37.294-39.048m-35.514 43.857c10.144-10.882 22.74-22.903 36.224-41.079m-34.032 40.633c12.19-13.886 24.564-29.237 36.424-40.806m-34.514 45.326c10.014-11.038 17.641-22.506 36.27-42.414m-36.043 40.711c7.476-10.22 18.004-18.987 35.897-40.294m-32.982 40.902c11.55-10.255 23.53-21.272 35.929-36.812m-33.675 36.314c5.9-7.09 13.578-17.076 31.96-36.205m-28.609 38.546c9.809-11.995 18.027-23.213 31.184-36.055m-30.111 34.297c9.823-10.016 18.317-19.035 28.824-33.088m-24.048 34.176c7.185-8.11 10.881-16.15 24.607-32.032m-24.69 31.901c11.036-11.319 19.88-22.855 27.484-30.781m-20.925 30.857c4.253-5 12.808-15.558 21.96-26.013m-22.813 26.348c4.388-7.141 11.768-13.864 24.307-27.695" stroke="#fa5252" stroke-width=".5"/><path d="M245.099 254.542c5.923.586 13.729 5.828 17.926 10.326 4.198 4.498 7.125 10.768 7.26 16.663.135 5.894-2.732 13.891-6.452 18.704-3.72 4.812-9.95 8.724-15.868 10.168-5.918 1.444-14.25 1.235-19.637-1.503-5.388-2.739-10.435-9.171-12.688-14.929-2.254-5.758-2.458-13.925-.834-19.619 1.625-5.693 4.56-11.512 10.58-14.543 6.018-3.03 20.365-3.62 25.531-3.642 5.167-.024 5.599 2.99 5.468 3.503m-17.547-5.32c5.817-1.132 15.76.822 20.644 4.785 4.882 3.963 7.341 13.09 8.652 18.993 1.312 5.904 1.649 11.038-.785 16.43-2.433 5.394-8.258 13.19-13.816 15.929-5.559 2.738-13.516 2.409-19.534.5-6.018-1.907-12.933-6.742-16.574-11.948-3.641-5.206-6.087-13.25-5.273-19.288.813-6.038 5.456-12.703 10.153-16.937 4.698-4.234 15.264-7.356 18.03-8.468 2.767-1.113-1.523 1.391-1.43 1.794" stroke="#000"/></g><g fill="none"><path d="M212.397 451.222s0 0 0 0m0 0s0 0 0 0m-1.009 7.572c8.064-8.57 12.941-15.236 17.32-18.776m-15.861 17.025c5.633-7.134 10.873-12.507 16.088-18.728m-13.703 23.861c4.919-5.82 7.398-10.24 18.586-25.518m-19.046 25.821c5.45-8.763 10.98-14.836 21.3-26.318m-23.366 30.707c9.197-6.629 14.868-11.847 31.31-33.65m-30.698 34.48c10.37-11.528 20.439-22.19 31.77-36.237m-27.228 38.704c12.054-15.164 26.207-30.84 30.693-36.107m-33.518 36.557c11.865-11.36 24.776-25.123 33.436-36.688m-28.968 42.156c11.69-18.047 24.966-33.844 34.214-40.57m-35.546 38.131c10.029-10.41 18.68-20.224 34.693-37.797m-32.78 42.635c10.389-10.46 16.52-21.764 37.29-42.064m-35.14 40.728c6.91-8.648 14.54-16.01 34.068-40.231m-32.491 41.244c14.452-11.03 24.164-24.845 37.933-39.716m-36.94 42.378c7.696-10.216 14.95-18.39 34.868-41.944m-33.393 45.129c10.605-13.297 23.43-25.73 37.343-42.04m-35.775 41.22c9.564-14.318 21.217-26.07 35.773-41.46m-31.649 43.389c5.506-9.618 16.004-20.737 33.939-40.663m-36.01 41.54c8.318-10.795 16.366-19.028 34.872-39.61m-30.985 38.772c9.253-9.61 18.135-20.954 33.324-36.605m-32.823 38.365c7.923-8.209 13.69-15.702 31.63-37.805m-25.279 36.15c7.84-6.081 13.474-16.185 29.667-33.247m-30.89 34.739c9.304-8.66 16.855-19.385 28.257-33m-21.378 35.152c4.834-9.867 16.61-19.547 24.98-32.113m-26.99 29.815c8.217-9.038 16.59-18.41 24.998-29.479m-21.03 31.883c10.544-11.927 17.306-21.48 22.492-25.84m-22.68 26.151c10.55-11.283 19.672-22.48 23.504-27.835" stroke="#fa5252" stroke-width=".5"/><path d="M244.683 431.65c5.761.177 11.585 3.59 15.681 8.148 4.096 4.56 8.414 13.02 8.897 19.208.483 6.189-2.314 13.38-6 17.925-3.685 4.545-10.35 8.078-16.112 9.348-5.762 1.27-13 .978-18.461-1.73-5.462-2.706-11.622-8.921-14.308-14.51-2.685-5.588-3.722-13.401-1.807-19.02 1.915-5.618 7.368-11.452 13.297-14.691 5.929-3.239 18.093-4.274 22.277-4.742 4.184-.468 2.921 1.52 2.828 1.934m-9.948-2.814c5.848-.47 12.883 2.317 17.41 6.532 4.529 4.214 8.638 12.568 9.758 18.754 1.119 6.186.116 13.323-3.041 18.362-3.157 5.04-10.097 9.902-15.9 11.873-5.805 1.971-13.285 1.964-18.925-.047-5.64-2.012-12.031-6.739-14.914-12.024-2.883-5.285-3.724-13.67-2.383-19.687 1.34-6.015 5.849-12.546 10.428-16.408 4.579-3.862 14.138-5.635 17.046-6.762 2.91-1.127.655-.252.406.002" stroke="#000"/></g><g font-family="Virgil" font-size="20"><text y="18" style="white-space:pre" transform="translate(303.475 57.484)">this class creates a piece of data,</text><text y="43" style="white-space:pre" transform="translate(303.475 57.484)">or an instance of something</text></g><g font-family="Virgil" font-size="20"><text y="18" style="white-space:pre" transform="translate(307.213 427.281)">but it&apos;s only down here in class C</text><text y="43" style="white-space:pre" transform="translate(307.213 427.281)">where we actually use the data.</text></g><g font-family="Virgil" font-size="20"><text y="18" style="white-space:pre" transform="translate(302.412 247.086)">in this case all B is doing is</text><text y="43" style="white-space:pre" transform="translate(302.412 247.086)">passing the value down to C from A</text></g></svg>